<svg width="120" height="79" viewBox="0 0 120 79" fill="none" xmlns="http://www.w3.org/2000/svg">
<g clip-path="url(#clip0)">
<path fill-rule="evenodd" clip-rule="evenodd" d="M8.71864 18.2481V16.7223C8.28319 16.6214 4.51332 16.6821 3.75397 16.6821C3.64497 16.6821 3.64263 16.7012 3.55213 16.7223V33.5063H0.00025177V38.6058H9.44523V24.5522C9.44523 23.581 10.0113 22.0537 10.9432 21.6657C11.7124 21.3454 12.7298 21.2085 13.4849 21.6579C13.7224 21.7991 13.9455 22.0665 14.0597 22.3307C14.2692 22.8157 14.3696 23.781 14.3696 24.472V38.6059H20.2626V24.5924C20.2626 24.1421 20.3665 23.7207 20.4891 23.3723C20.6324 22.9655 20.9771 22.2479 21.3111 21.9816C21.9878 21.442 22.4391 21.3802 23.3705 21.3802C24.9839 21.3802 25.1899 23.0425 25.1869 24.3514C25.1764 28.9318 25.2138 33.5503 25.1867 38.1241C25.1856 38.3209 25.124 38.6058 25.308 38.6058H31.0799V24.3916C31.0799 23.8996 31.0375 23.5197 31.0404 23.0657L30.942 21.7582C30.7702 20.5504 30.6587 19.637 29.9576 18.5212C29.7567 18.2018 29.5726 18.0163 29.3141 17.756C27.8659 16.2985 24.4957 16.0277 22.5872 16.5052C21.3144 16.8238 20.31 17.3732 19.3459 18.1795C19.2039 18.2983 19.1181 18.4311 18.9708 18.5291C18.6653 18.0752 18.0995 17.5047 17.6226 17.2202C16.4669 16.5305 15.3575 16.3643 13.9644 16.322C13.7632 16.316 13.7503 16.2717 13.5656 16.2814C13.4136 16.2893 13.3701 16.3225 13.1593 16.3216C12.3733 16.3182 11.2948 16.6448 10.6287 16.9762C10.5107 17.0349 10.475 17.0732 10.3471 17.1378C9.30219 17.6655 9.32355 17.8451 8.71857 18.2481H8.71864Z" fill="#24A724"/>
<path fill-rule="evenodd" clip-rule="evenodd" d="M107.366 59.3651C106.347 59.3651 105.083 59.3847 104.368 58.6935C103.575 57.9254 103.532 57.2859 103.532 56.2332C103.532 55.3087 103.84 54.3821 104.35 53.9556C105.288 53.1716 108.069 53.1669 109.166 53.4788C110.51 53.8608 110.837 54.7303 110.837 56.2733C110.837 58.522 109.732 59.3651 107.366 59.3651H107.366ZM97.6387 55.9119C97.6387 57.2321 97.746 58.8938 98.1919 59.939C98.9175 61.64 99.522 61.7961 99.8585 62.2963C99.6917 62.6097 99.5102 62.7925 99.357 63.1626C99.2844 63.3382 99.2211 63.4503 99.1489 63.6382C98.9346 64.1955 98.8368 64.7131 98.7746 65.3137C98.7636 65.4202 98.7745 65.5216 98.7663 65.6266C98.704 66.4354 98.7707 66.0936 98.7692 66.6324C98.7666 67.5476 99.124 68.5706 99.5213 69.2973C99.7305 69.6799 100.095 70.2137 100.36 70.551C100.819 71.1355 100.763 71.0523 101.231 71.0499L110.958 71.0497C111.407 71.7168 111.443 71.9468 111.443 72.696C111.443 73.3412 110.832 73.9005 110.555 73.9005H98.8091V79H111.08C112.302 79 114.019 78.4527 115.011 77.8119C115.603 77.4301 116.21 76.8267 116.594 76.2539C116.867 75.8453 117.108 75.3647 117.247 74.8561C117.547 73.7591 117.397 73.8077 117.514 73.0339C117.561 72.7285 117.471 71.4015 117.429 71.1172C117.224 69.7258 116.807 68.5383 115.832 67.5662C115.423 67.1579 114.548 66.5286 114.026 66.2708C113.478 66.0002 113.157 65.8686 112.331 65.8696C109.559 65.873 106.788 65.8696 104.016 65.8696C103.912 65.4252 103.902 64.8234 104.006 64.3744C104.057 64.1561 104.137 64.0746 104.177 63.9022C104.505 63.9781 104.983 63.9659 105.319 64.0117C105.718 64.066 106.148 63.9794 106.542 64.0395L107.73 64.0226C108.998 64.0255 111.467 63.6729 112.6 63.1659C114.076 62.5056 114.89 62.0622 115.769 60.6169C116.648 59.1722 116.96 56.822 116.566 54.9103C116.427 54.2318 116.211 53.912 116.125 53.5426H120V48.4431H107.77C106.259 48.4431 104.121 48.5648 102.782 48.942C102.062 49.1447 101.872 49.1839 101.204 49.5405L100.512 49.9766C99.1101 50.8613 98.2325 52.3299 97.8646 53.9281C97.728 54.5222 97.6387 55.2047 97.6387 55.9117V55.9119Z" fill="#24A724"/>
<path fill-rule="evenodd" clip-rule="evenodd" d="M76.0443 16.7223H73.1785V21.7415H76.0443V32.1412C76.0443 33.685 76.3082 35.7856 77.2084 37.006C77.6073 37.5467 78.5027 38.3433 79.1601 38.5176C80.3914 38.8445 81.6497 39.0074 83.0675 39.0074H120V33.8677H91.0997C89.8558 33.8677 88.7222 33.9079 87.5074 33.9079C86.2965 33.9079 85.0857 33.9079 83.8747 33.9079C83.1785 33.9079 82.7364 33.9513 82.378 33.59C82.1449 33.3549 81.9373 32.7038 81.9373 32.2214V21.7415H86.3369V16.7223C85.9095 16.6231 82.6424 16.6821 81.9373 16.6821V11.4622H76.0443V16.7223Z" fill="#24A724"/>
<path fill-rule="evenodd" clip-rule="evenodd" d="M11.5844 66.1911C11.0586 66.1911 10.4622 66.211 9.96303 66.1578C9.78897 66.1392 9.58902 66.1109 9.44515 66.1109V56.715C9.44515 56.2546 9.60109 55.7885 9.74444 55.4467C10.0181 54.7935 10.6097 54.1215 11.2468 53.8093C12.026 53.4274 13.4067 53.449 14.1207 53.9108C14.9801 54.4668 15.229 56.1138 15.2588 57.1152L15.2992 60.1294L15.1879 61.946C15.083 62.7352 15.1328 63.2827 14.785 64.1552C14.3658 65.2064 13.9613 65.8084 12.7858 66.0611C12.4393 66.1357 11.9849 66.1911 11.5844 66.1911ZM0.000171661 45.2712H3.55205V70.8489C3.76249 70.8489 3.79759 70.8737 3.95784 70.8869C4.11122 70.8996 4.28581 70.8831 4.4413 70.8876C4.64057 70.8935 4.64299 70.9247 4.84226 70.9305L7.10385 71.0496C7.2841 71.0584 7.29671 71.0896 7.50625 71.0911L9.76693 71.2112C10.0827 71.2099 10.4166 71.1843 10.7272 71.2228C10.9266 71.2475 11.2765 71.2102 11.5842 71.2102L12.5124 71.1699C13.6655 71.1541 15.3484 70.7762 16.4164 70.3557C17.0827 70.0933 17.8773 69.5496 18.3961 69.0726C19.4042 68.1456 20.2583 66.4488 20.5751 65.0968C20.6409 64.8163 20.69 64.5846 20.7552 64.3123C21.3918 61.6545 21.4586 56.7888 20.9186 54.0946C20.6951 52.9793 20.1798 51.3693 19.3847 50.5212C18.9863 50.0962 18.9075 49.9456 18.3015 49.5507C16.4085 48.3177 13.0868 48.2097 10.9386 49.1661C10.5601 49.3346 10.0421 49.6174 9.69522 49.8565C9.58834 49.9302 9.56177 49.9784 9.44523 50.0093V40.1717H0.000247143V45.2712H0.000171661H0.000171661Z" fill="#24A724"/>
<path fill-rule="evenodd" clip-rule="evenodd" d="M29.2231 63.9828C29.2231 63.5182 29.2709 63.04 29.4378 62.6707C29.6151 62.2789 29.7003 62.1379 30.0172 61.8817C30.4775 61.5098 31.3132 61.2121 32.1291 61.2121H34.551C34.551 62.2145 34.6316 63.4643 34.3825 64.3771C34.142 65.2588 33.3211 66.1228 32.2405 66.2617C31.3984 66.3699 30.5343 66.2306 30.0292 65.8711C29.5853 65.5552 29.2231 64.7458 29.2231 63.9828H29.2231ZM24.8236 53.6634C24.8236 53.8594 25.2405 53.784 25.4291 53.7839H30.6763C31.4715 53.7839 32.9633 53.6826 33.5691 53.8773C34.6804 54.234 34.551 55.9933 34.551 56.8757C32.6897 56.8757 30.6984 56.829 28.9576 57.2138C27.6389 57.5054 26.645 57.8809 25.6464 58.5374C25.1195 58.8837 24.724 59.3665 24.3504 59.8582C24.1894 60.0702 24.0955 60.2922 23.9759 60.5296C23.1272 62.213 23.0687 64.9882 23.5314 66.8743C23.7235 67.6569 23.9606 68.1646 24.3412 68.7591C24.6963 69.3135 25.1133 69.7579 25.671 70.1264C26.6285 70.7591 27.5053 70.978 28.6801 71.1482C29.0827 71.2064 29.5393 71.2 29.9215 71.2408L31.7946 71.1184C34.7657 70.6831 35.5534 69.1591 35.8425 69.0822C35.9703 69.5584 36.7969 70.212 37.3354 70.4078C38.9268 70.9865 40.3677 70.849 42.0584 70.849C42.1514 70.849 42.1795 70.821 42.1795 70.7285V66.4322C40.9763 66.4322 40.4392 66.1197 40.4438 64.9066C40.448 63.7965 40.5098 56.0415 40.3804 55.1723C40.3028 54.652 40.3348 54.4227 40.1987 53.7468C40.0897 53.2053 39.8966 52.3727 39.624 51.8693C39.565 51.7606 39.5291 51.7203 39.475 51.616C39.4218 51.5136 39.4 51.4633 39.3306 51.3581C38.9994 50.8562 38.615 50.4581 38.1262 50.1069C37.9466 49.9778 37.8122 49.9133 37.6263 49.8011C36.6282 49.1997 34.8381 48.9255 33.5417 48.9255H24.8233V53.6636L24.8236 53.6634Z" fill="#24A724"/>
<path fill-rule="evenodd" clip-rule="evenodd" d="M62.563 64.1032C62.563 63.4885 62.5377 63.1086 62.818 62.5501C63.008 62.1716 63.0952 62.0678 63.4215 61.8254C63.8666 61.4947 64.7024 61.2123 65.4691 61.2123H67.891C67.891 62.7988 68.1472 64.8217 66.6568 65.847C65.7263 66.4871 64.2338 66.4095 63.4421 65.9192C62.9747 65.6298 62.5631 64.8497 62.5631 64.1033L62.563 64.1032ZM58.1635 53.7839H66.2765C66.9812 53.7839 67.2455 54.0016 67.5285 54.4255C67.9601 55.0719 67.8911 56.0469 67.8911 56.8756C65.8551 56.8756 64.2811 56.8231 62.2974 57.2135L60.7233 57.6554C60.4628 57.7548 60.2422 57.8623 60.0146 57.9541C59.2344 58.2694 58.5168 58.826 57.9736 59.4573C57.417 60.1044 57.0224 61.0446 56.823 61.8864C56.4544 63.4434 56.5176 65.5347 56.9036 67.0429C57.0561 67.6388 57.3837 68.3818 57.7362 68.8649C58.4438 69.8341 58.8664 70.1267 59.9531 70.6348C60.8954 71.0753 61.9836 71.1764 63.0084 71.2091C63.1869 71.2147 63.1979 71.2462 63.3299 71.2462C63.4679 71.2462 63.442 71.22 63.6122 71.2103C63.7118 71.2046 63.8335 71.21 63.9354 71.2103C65.1069 71.2144 66.7153 70.9015 67.6817 70.2794C68.1541 69.9754 68.4278 69.773 68.8092 69.3933C68.9251 69.278 69.0141 69.1269 69.1825 69.0822C69.2859 69.5237 70.132 70.2199 70.6701 70.4131C72.2617 70.9847 73.7905 70.849 75.4792 70.849V66.432C74.2145 66.432 73.7824 66.0864 73.7839 64.8661C73.7852 63.7819 73.784 62.6978 73.784 61.6135C73.784 59.1645 74.0227 54.7081 73.1841 52.413C72.8829 51.5885 72.3514 50.7987 71.6686 50.2666C71.0675 49.798 70.5042 49.5566 69.7633 49.3111C69.0433 49.0724 67.7848 48.9251 66.8415 48.9251H58.1634V53.7836L58.1635 53.7839Z" fill="#24A724"/>
<path fill-rule="evenodd" clip-rule="evenodd" d="M62.7245 34.0685C61.9585 34.0685 61.0724 34.0183 60.6071 33.4445C59.9559 32.6415 59.8841 31.4449 60.2055 30.5187C60.3133 30.2084 60.5327 29.8913 60.7579 29.703C61.3048 29.246 62.1251 29.0092 62.8455 29.0092H65.3481C65.3481 30.1051 65.4536 31.3253 65.1323 32.2878C64.9383 32.8687 64.4077 33.5162 63.8685 33.8013C63.5896 33.9486 63.1355 34.0685 62.7245 34.0685ZM55.6206 16.8026V21.4203C55.6206 21.6163 56.0374 21.5407 56.226 21.5407C57.4993 21.5397 63.5784 21.4737 64.2567 21.6226C65.4951 21.8944 65.3481 23.6993 65.3481 24.6726C62.485 24.6726 60.4517 24.5495 57.8001 25.5961C57.4162 25.7477 56.7876 26.0735 56.4619 26.3128C55.76 26.8282 55.4432 27.1585 55.0075 27.8774C54.2895 29.0619 54.0464 30.5649 54.0464 31.9806C54.0464 34.2833 54.5442 36.6283 56.5241 37.9479C56.7727 38.1135 57.3516 38.4096 57.6532 38.5112C59.6209 39.1743 62.4963 39.2075 64.3857 38.4516C64.6299 38.3539 64.8073 38.2361 65.0254 38.1242C65.3475 37.9591 65.8884 37.5689 66.1453 37.311C66.2993 37.1564 66.4693 36.9526 66.6397 36.8391C66.7399 37.2668 67.524 37.9325 68.0406 38.1357C69.6437 38.7657 71.1252 38.6058 72.8556 38.6058C72.9486 38.6058 72.9767 38.5779 72.9767 38.4854V34.3095C72.9767 34.1189 72.7767 34.2251 72.2957 34.1439C71.9391 34.0834 71.663 34.0148 71.4836 33.7069C71.2777 33.3534 71.2386 33.0809 71.2409 32.6233C71.2502 30.8286 71.3181 23.7602 71.1379 22.4867C71.0647 21.969 71.0094 21.52 70.9014 21.0356C70.6029 19.6962 69.999 18.6892 68.912 17.875C68.4205 17.5068 67.7685 17.2529 67.1692 17.0791C65.899 16.7105 64.7062 16.6822 63.2492 16.6822H55.7417C55.6487 16.6822 55.6206 16.7103 55.6206 16.8028L55.6206 16.8026Z" fill="#24A724"/>
<path fill-rule="evenodd" clip-rule="evenodd" d="M82.8657 50.5715V48.9252H77.6992V70.849H83.4711C83.6579 70.849 83.5929 70.5284 83.5923 70.327L83.592 56.7952C83.5883 55.7751 84.1638 54.6405 84.8605 54.162C85.7282 53.5659 87.2117 53.3732 88.1409 53.8362C88.307 53.919 88.4443 54.0059 88.5813 54.1207C88.6382 54.1683 88.8966 54.4674 88.9343 54.5324C89.2647 55.1027 89.4044 56.142 89.4044 57.0359V70.8487H95.1763C95.2693 70.8487 95.2975 70.8207 95.2975 70.7283V57.558C95.2975 55.8175 95.2049 53.6659 94.6975 52.132C94.6479 51.9819 94.6172 51.9241 94.5592 51.7878C94.498 51.6439 94.4743 51.5428 94.4104 51.4137C94.0976 50.7819 93.6058 50.1764 93.0653 49.7403C92.8858 49.5954 92.6629 49.4662 92.4551 49.3435C91.3594 48.6962 89.4664 48.5237 88.1532 48.5237C86.8573 48.5237 86.0164 48.7576 85.0907 49.1312C84.8883 49.2127 84.6997 49.3137 84.5034 49.4303C84.3927 49.496 84.3237 49.5183 84.214 49.584C83.7248 49.8771 82.9439 50.5304 82.8656 50.5715H82.8657Z" fill="#24A724"/>
<path fill-rule="evenodd" clip-rule="evenodd" d="M34.1474 16.8026V31.1775C34.1474 32.7279 34.4254 35.07 35.1985 36.3956C35.7987 37.4245 36.4394 37.9847 37.647 38.4972C38.4321 38.8304 39.9048 39.0072 40.7669 39.0072C42.7426 39.0072 43.7558 38.7311 45.2874 37.7222L46.2966 36.9594C46.2966 37.2657 46.2563 37.4071 46.2563 37.7223C46.2563 38.2635 46.1753 38.6057 46.3774 38.6057H51.4632V16.8025C51.4632 16.71 51.4351 16.6819 51.342 16.6819C50.5061 16.6819 46.0158 16.6189 45.5701 16.7221V30.575C45.5704 31.0818 45.5434 31.312 45.4235 31.7141C45.3268 32.0381 45.1941 32.3237 45.0441 32.5813C44.8961 32.8356 44.7049 33.1171 44.4748 33.2999C44.3392 33.4078 44.3049 33.4638 44.1305 33.5595C43.9846 33.6395 43.8491 33.7012 43.6846 33.7585C43.234 33.9154 42.8914 33.9479 42.3815 33.9479C41.16 33.9479 40.6599 33.6074 40.3104 32.7156C40.0192 31.9724 40.0001 30.7574 40.0001 29.7317V16.6819H34.2685C34.1755 16.6819 34.1474 16.7099 34.1474 16.8024V16.8026Z" fill="#24A724"/>
<path fill-rule="evenodd" clip-rule="evenodd" d="M49.6064 50.8124V48.9252H44.3592V70.7285C44.3592 70.8209 44.3873 70.849 44.4803 70.849H50.1311C50.3179 70.849 50.2529 70.5284 50.2523 70.327L50.2508 60.0865C50.2514 59.7179 50.3244 59.2185 50.3708 58.8807C50.4254 58.4828 50.5208 58.1165 50.615 57.7586C50.775 57.1517 51.099 56.3911 51.4548 55.8636C51.7935 55.3616 52.2742 54.7965 52.7784 54.4499C54.005 53.6072 54.6996 53.7435 56.1854 53.7435V48.9252C55.6611 48.9252 55.4698 48.9394 54.9671 48.8893L53.1456 48.9929C52.2028 49.1342 51.4395 49.2837 50.6323 49.8656C50.0411 50.2918 49.6842 50.7557 49.6063 50.8124L49.6064 50.8124Z" fill="#24A724"/>
<rect x="1" y="1" width="39" height="9" fill="white"/>
<path fill-rule="evenodd" clip-rule="evenodd" d="M0.000324249 2.54351C0.000324249 0.298074 0.497373 0 3.85164 0H39.917C40.4441 0 40.8756 0.429425 40.8756 0.953777V10.0412C40.8756 10.5657 40.4441 10.995 39.917 10.995H3.85164C0.497599 10.995 0.000324249 11.1937 0.000324249 13.5385C0.000324249 9.87354 0.000324249 6.20849 0.000324249 2.54351ZM7.36827 3.43067L6.10289 6.34502L4.85502 3.43067H3.8299L5.59905 7.51073H6.53638L8.31141 3.43067H7.36827ZM11.4397 5.9545C11.4397 4.94612 10.7249 4.32827 9.79939 4.32827C8.83865 4.32827 8.1181 5.0044 8.1181 5.94286C8.1181 6.87538 8.82688 7.55737 9.91654 7.55737C10.4848 7.55737 10.9241 7.38254 11.2171 7.05029L10.7308 6.52571C10.5141 6.72969 10.2739 6.82882 9.94001 6.82882C9.45957 6.82882 9.12571 6.58977 9.03778 6.19933H11.4221C11.428 6.12355 11.4397 6.02442 11.4397 5.9545ZM9.80528 5.01604C10.2153 5.01604 10.5141 5.27251 10.5785 5.66889H9.02608C9.09054 5.26673 9.38929 5.01604 9.80528 5.01604ZM12.9218 4.78879V4.37491H12.049V7.51073H12.9628V6.03027C12.9628 5.42992 13.2968 5.15595 13.8006 5.15595C13.8709 5.15595 13.9295 5.16181 14.0056 5.16759V4.32827C13.5194 4.32827 13.1444 4.48568 12.9218 4.78879ZM15.6225 7.55737C16.5657 7.55737 17.1105 7.14357 17.1105 6.56063C17.1105 5.32501 15.2065 5.84372 15.2065 5.30751C15.2065 5.14431 15.3823 5.01604 15.7924 5.01604C16.0794 5.01604 16.3899 5.07439 16.7004 5.24923L17.005 4.60224C16.7063 4.4274 16.2259 4.32827 15.7924 4.32827C14.8726 4.32827 14.3337 4.74793 14.3337 5.3425C14.3337 6.59563 16.2376 6.07008 16.2376 6.58399C16.2376 6.75882 16.0794 6.8696 15.6576 6.8696C15.271 6.8696 14.8433 6.74718 14.5621 6.56649L14.2575 7.21927C14.5504 7.41167 15.0894 7.55737 15.6225 7.55737ZM18.1298 3.93775C18.4695 3.93775 18.698 3.71628 18.698 3.41317C18.698 3.13342 18.4695 2.92359 18.1298 2.92359C17.79 2.92359 17.5615 3.14506 17.5615 3.43067C17.5615 3.71628 17.79 3.93775 18.1298 3.93775ZM17.6728 7.51073H18.5867V4.37491H17.6728V7.51073ZM24.1696 5.38914C24.5036 5.21423 24.7145 4.89949 24.7145 4.49154C24.7145 3.85619 24.1872 3.43067 23.162 3.43067H21.1585V7.51073H23.2792C24.3571 7.51073 24.9195 7.10271 24.9195 6.39744C24.9195 5.88458 24.6265 5.53484 24.1696 5.38914ZM23.0448 4.1418C23.5077 4.1418 23.7595 4.29913 23.7595 4.61974C23.7595 4.94034 23.5077 5.10353 23.0448 5.10353H22.1017V4.1418H23.0448ZM23.2089 6.7996H22.1017V5.7913H23.2089C23.701 5.7913 23.9646 5.9545 23.9646 6.29838C23.9646 6.64813 23.701 6.7996 23.2089 6.7996ZM26.5832 6.75304V5.8088H28.4871V5.07439H26.5832V4.18843H28.739V3.43067H25.64V7.51073H28.8152V6.75304H26.5832ZM30.4203 7.51073H31.3693V4.20007H32.6816V3.43067H29.108V4.20007H30.4203V7.51073ZM36.05 7.51073H37.046L35.2123 3.43067H34.275L32.4473 7.51073H33.4197L33.7829 6.63641H35.6868L36.05 7.51073ZM34.0876 5.9195L34.7378 4.35741L35.3881 5.9195H34.0876Z" fill="#FBA213"/>
</g>
<defs>
<clipPath id="clip0">
<rect width="120" height="79" fill="white"/>
</clipPath>
</defs>
</svg>
